<svg version="1.1" xmlns="http://www.w3.org/2000/svg" xmlns:xlink="http://www.w3.org/1999/xlink" width="136.3" height="13.22693" viewBox="0,0,136.3,13.22693"><defs><linearGradient x1="-7.9" y1="100.00006" x2="125.1141" y2="100.00006" gradientUnits="userSpaceOnUse" id="color-1"><stop offset="0" stop-color="#ffffff"/><stop offset="1" stop-color="#ade6ff"/></linearGradient><radialGradient cx="11.95304" cy="96.40036" r="1.26041" gradientUnits="userSpaceOnUse" id="color-2"><stop offset="0" stop-color="#ffffff"/><stop offset="1" stop-color="#c3c3c3"/></radialGradient><radialGradient cx="8.36017" cy="95.72866" r="0.96255" gradientUnits="userSpaceOnUse" id="color-3"><stop offset="0" stop-color="#ffffff"/><stop offset="1" stop-color="#c3c3c3"/></radialGradient><radialGradient cx="7.55184" cy="99.77989" r="4.3889" gradientUnits="userSpaceOnUse" id="color-4"><stop offset="0" stop-color="#ffffff"/><stop offset="1" stop-color="#c3c3c3"/></radialGradient></defs><g transform="translate(8.15,-93.4582)"><g stroke-miterlimit="10"><path d="M-7.9,106.2919v-12.58367h133.0141v12.58367z" fill="url(#color-1)" stroke="#ffffff" stroke-width="0" stroke-linecap="butt"/><path d="M-7.9,106.29188v-12.58367h135.8v12.58367z" fill="none" stroke="#000000" stroke-width="0.5" stroke-linecap="butt"/><text transform="translate(16.26905,103.14598) scale(0.26216,0.26216)" font-size="40" xml:space="preserve" fill="#000000" stroke="none" stroke-width="1" stroke-linecap="butt" font-family="&quot;ヒラギノ角ゴ Pro W3&quot;, &quot;Hiragino Kaku Gothic Pro&quot;, Osaka, &quot;メイリオ&quot;, Meiryo, &quot;ＭＳ Ｐゴシック&quot;, &quot;MS PGothic&quot;" font-weight="normal" text-anchor="start"><tspan x="0" dy="0">Stopwatch</tspan></text><path d="M10.91486,97.10491l0.94139,-1.34278l1.5763,1.1051l-0.94139,1.34278z" fill="url(#color-2)" stroke="#000000" stroke-width="0.5" stroke-linecap="butt"/><path d="M7.86772,97.04587l-0.28382,-1.61515l1.89604,-0.33319l0.28382,1.61515z" fill="url(#color-3)" stroke="#000000" stroke-width="0.5" stroke-linecap="butt"/><path d="M5.05864,101.27244c-0.41952,-2.38734 1.17572,-4.66276 3.56306,-5.08228c2.38734,-0.41952 4.66276,1.17572 5.08228,3.56306c0.41952,2.38734 -1.17572,4.66276 -3.56306,5.08228c-2.38734,0.41952 -4.66276,-1.17572 -5.08228,-3.56306z" fill="url(#color-4)" stroke="#000000" stroke-width="0.5" stroke-linecap="butt"/><path d="M8.77707,97.07435l0.65603,3.73321" fill="none" stroke="#000000" stroke-width="0.5" stroke-linecap="round"/></g></g></svg>