<svg version="1.1" xmlns="http://www.w3.org/2000/svg" xmlns:xlink="http://www.w3.org/1999/xlink" width="91.62215" height="23.56177" viewBox="0,0,91.62215,23.56177"><defs><radialGradient cx="23.04391" cy="94.38889" r="11.78089" gradientUnits="userSpaceOnUse" id="color-1"><stop offset="0" stop-color="#ffffff"/><stop offset="1" stop-color="#007dff"/></radialGradient></defs><g transform="translate(-14.41612,-88.21912)"><g stroke="none" stroke-miterlimit="10"><path d="M14.91981,103.39827c-0.28471,-0.94478 -0.44505,-1.89744 -0.49047,-2.8404l21.88365,-6.59461c0.48315,0.81105 0.87586,1.69368 1.16057,2.63846c0.16671,0.55322 0.29078,1.10914 0.37411,1.66423l-22.32014,6.72614c-0.23725,-0.50871 -0.44099,-1.04062 -0.6077,-1.59383zM29.59496,111.27687c-1.40997,0.42489 -2.83748,0.57281 -4.2241,0.47511l8.00739,-2.41302c-1.10177,0.84757 -2.37332,1.51301 -3.78329,1.93791zM21.53887,110.81791l14.51722,-4.37474c-0.44579,0.68291 -0.96286,1.3209 -1.54456,1.90152l-10.63463,3.20473c-0.80565,-0.16255 -1.58914,-0.40861 -2.33803,-0.73151zM18.39708,108.82725l19.17781,-5.77921c-0.24378,0.90658 -0.59459,1.77908 -1.04237,2.59878l-15.83072,4.77057c-0.82613,-0.43581 -1.60061,-0.96921 -2.30471,-1.59014zM15.811,105.55944l22.11385,-6.66397c0.11151,1.1707 0.04424,2.33173 -0.18391,3.44979l-19.87056,5.98796c-0.80792,-0.80584 -1.50548,-1.73639 -2.05937,-2.77378zM22.79842,88.72313c5.066,-1.52663 10.35844,0.52241 13.16712,4.69208l-21.54942,6.49388c0.0372,-5.02728 3.3163,-9.65933 8.38229,-11.18596z" fill="url(#color-1)" stroke-width="0"/><text transform="translate(41.04391,103.46211) scale(0.30007,0.30007)" font-size="40" xml:space="preserve" fill="#000000" stroke-width="1" font-family="Archivo Black" font-weight="normal" text-anchor="start"><tspan x="0" dy="0">NEPTUNE</tspan></text><text transform="translate(41.54391,108.80387) scale(0.16292,0.16292)" font-size="40" xml:space="preserve" fill="#000000" stroke-width="1" font-family="Archivo" font-weight="normal" text-anchor="start"><tspan x="0" dy="0">BASIC</tspan></text></g></g></svg>